<?xml version="1.0" encoding="UTF-8" standalone="no"?>
<!DOCTYPE svg PUBLIC "-//W3C//DTD SVG 20010904//EN"
              "http://www.w3.org/TR/2001/REC-SVG-20010904/DTD/svg10.dtd">

<svg xmlns="http://www.w3.org/2000/svg"
     width="19.0417in" height="6.34722in"
     viewBox="0 0 1371 457">
  <path id="Selection"
        fill="none" stroke="black" stroke-width="1"
        d="M 338.00,104.60
           C 338.00,104.60 406.00,112.85 406.00,112.85
             406.00,112.85 429.00,115.85 429.00,115.85
             433.39,116.37 442.26,117.09 446.00,118.61
             455.62,122.52 460.47,133.00 459.91,143.00
             459.91,143.00 455.17,189.00 455.17,189.00
             455.17,189.00 444.83,293.00 444.83,293.00
             444.83,293.00 443.16,308.00 443.16,308.00
             441.76,321.09 439.77,336.61 423.00,337.91
             423.00,337.91 398.00,335.28 398.00,335.28
             398.00,335.28 351.00,329.28 351.00,329.28
             343.46,328.30 318.42,325.83 313.00,323.47
             303.69,319.41 299.66,309.66 300.04,300.00
             300.04,300.00 302.83,273.00 302.83,273.00
             302.83,273.00 307.72,224.00 307.72,224.00
             307.72,224.00 316.84,134.00 316.84,134.00
             318.41,119.32 320.08,106.50 338.00,104.60 Z
           M 401.00,347.00
           C 390.96,348.80 373.82,348.00 363.00,348.00
             363.00,348.00 301.00,348.00 301.00,348.00
             280.60,347.76 275.03,335.39 275.00,317.00
             275.00,317.00 275.00,154.00 275.00,154.00
             275.02,143.02 278.29,130.81 290.00,126.85
             293.67,125.61 301.81,126.00 306.00,126.00
             302.11,143.30 299.76,178.68 297.83,198.00
             297.83,198.00 290.83,267.00 290.83,267.00
             290.83,267.00 286.88,308.00 286.88,308.00
             286.65,318.86 291.33,328.93 302.00,333.05
             306.21,334.67 315.21,335.51 320.00,336.05
             320.00,336.05 373.00,342.85 373.00,342.85
             378.79,343.54 396.66,345.22 401.00,347.00 Z
           M 572.00,237.00
           C 572.00,237.00 572.00,169.00 572.00,169.00
             572.02,156.70 572.52,141.49 588.00,140.19
             605.62,138.71 606.98,154.66 607.00,168.00
             607.00,168.00 607.00,237.00 607.00,237.00
             607.00,237.00 596.00,237.00 596.00,237.00
             596.00,237.00 596.00,209.00 596.00,209.00
             596.00,209.00 583.00,209.00 583.00,209.00
             583.00,209.00 583.00,237.00 583.00,237.00
             583.00,237.00 572.00,237.00 572.00,237.00 Z
           M 661.96,187.00
           C 661.96,187.00 661.96,202.00 661.96,202.00
             661.96,202.00 661.00,213.00 661.00,213.00
             660.97,219.76 660.80,227.32 656.36,232.89
             650.10,240.77 635.08,239.62 630.09,231.00
             627.16,225.94 626.01,205.50 626.00,199.00
             626.00,199.00 626.83,163.00 626.83,163.00
             627.37,157.47 627.08,152.09 630.09,147.02
             635.16,138.43 650.22,137.54 656.58,145.11
             660.49,149.76 660.98,159.10 661.00,165.00
             661.00,165.00 651.00,165.00 651.00,165.00
             650.80,160.58 650.33,150.98 644.96,149.74
             637.80,148.09 637.02,160.60 637.00,165.00
             637.00,165.00 637.00,210.00 637.00,210.00
             637.01,213.99 636.98,219.39 639.14,222.89
             641.77,227.18 646.24,227.27 648.84,222.89
             651.82,217.87 651.00,202.34 651.00,196.00
             651.00,196.00 643.00,196.00 643.00,196.00
             643.00,196.00 643.00,187.00 643.00,187.00
             643.00,187.00 661.96,187.00 661.96,187.00 Z
           M 711.00,237.00
           C 711.00,237.00 711.00,169.00 711.00,169.00
             711.02,156.70 711.52,141.49 727.00,140.19
             744.62,138.71 745.98,154.66 746.00,168.00
             746.00,168.00 746.00,237.00 746.00,237.00
             746.00,237.00 735.00,237.00 735.00,237.00
             735.00,237.00 735.00,209.00 735.00,209.00
             735.00,209.00 722.00,209.00 722.00,209.00
             722.00,209.00 722.00,237.00 722.00,237.00
             722.00,237.00 711.00,237.00 711.00,237.00 Z
           M 832.00,208.00
           C 832.00,214.55 831.24,226.41 827.78,231.96
             823.32,239.10 810.17,240.34 804.65,233.78
             799.97,228.22 799.01,209.47 799.00,202.00
             799.00,202.00 799.83,162.00 799.83,162.00
             800.40,156.11 799.81,152.74 802.83,147.02
             807.25,138.64 821.51,137.34 827.30,145.11
             830.67,149.62 831.54,159.37 832.00,165.00
             832.00,165.00 821.00,165.00 821.00,165.00
             821.00,161.60 821.13,147.21 814.22,150.17
             809.96,151.99 810.01,161.13 810.00,165.00
             810.00,165.00 810.00,213.00 810.00,213.00
             810.04,216.40 810.75,228.01 816.79,225.60
             822.45,223.34 819.97,212.20 822.02,209.60
             823.73,207.44 829.41,208.00 832.00,208.00 Z
           M 904.00,237.00
           C 904.00,237.00 904.00,171.00 904.00,171.00
             904.01,163.11 904.60,146.80 912.10,142.44
             919.35,138.23 931.41,139.36 935.91,147.02
             938.95,152.18 938.97,160.16 939.00,166.00
             939.00,166.00 940.00,182.00 940.00,182.00
             940.00,182.00 940.00,237.00 940.00,237.00
             940.00,237.00 928.00,237.00 928.00,237.00
             928.00,237.00 928.00,209.00 928.00,209.00
             928.00,209.00 916.00,209.00 916.00,209.00
             916.00,209.00 916.00,237.00 916.00,237.00
             916.00,237.00 904.00,237.00 904.00,237.00 Z
           M 1061.00,237.00
           C 1061.00,218.16 1059.98,171.90 1062.30,156.00
             1062.82,152.43 1064.07,147.89 1066.42,145.11
             1071.02,139.65 1080.74,138.79 1087.00,141.65
             1098.04,146.69 1095.89,164.93 1096.00,175.00
             1096.00,175.00 1097.00,190.00 1097.00,190.00
             1097.00,190.00 1097.00,237.00 1097.00,237.00
             1097.00,237.00 1085.00,237.00 1085.00,237.00
             1085.00,237.00 1085.00,209.00 1085.00,209.00
             1085.00,209.00 1073.00,209.00 1073.00,209.00
             1073.00,209.00 1073.00,237.00 1073.00,237.00
             1073.00,237.00 1061.00,237.00 1061.00,237.00 Z
           M 504.00,141.00
           C 504.00,141.00 515.00,141.00 515.00,141.00
             515.00,141.00 527.00,201.00 527.00,201.00
             530.67,197.03 530.50,193.11 531.65,188.00
             531.65,188.00 537.80,159.00 537.80,159.00
             538.46,155.70 540.26,143.79 542.58,142.02
             544.40,140.64 549.66,141.00 552.00,141.00
             552.00,141.00 552.00,237.00 552.00,237.00
             552.00,237.00 540.00,237.00 540.00,237.00
             540.00,237.00 540.00,208.00 540.00,208.00
             540.00,208.00 539.00,190.00 539.00,190.00
             539.00,190.00 532.92,228.00 532.92,228.00
             532.40,231.10 530.99,240.11 525.59,235.97
             523.52,234.39 522.71,225.78 522.25,223.00
             522.25,223.00 516.00,190.00 516.00,190.00
             516.00,190.00 516.00,237.00 516.00,237.00
             516.00,237.00 504.00,237.00 504.00,237.00
             504.00,237.00 504.00,141.00 504.00,141.00 Z
           M 679.75,141.00
           C 679.75,141.00 691.00,141.00 691.00,141.00
             691.00,141.00 691.00,237.00 691.00,237.00
             691.00,237.00 679.75,237.00 679.75,237.00
             679.75,237.00 679.75,221.00 679.75,221.00
             679.75,221.00 679.75,198.00 679.75,198.00
             679.75,198.00 679.75,176.59 679.75,176.59
             679.75,176.59 679.75,159.00 679.75,159.00
             679.75,159.00 679.75,141.00 679.75,141.00 Z
           M 849.00,141.00
           C 849.00,141.00 860.00,141.00 860.00,141.00
             860.00,141.00 860.00,182.00 860.00,182.00
             860.00,182.00 873.00,182.00 873.00,182.00
             873.00,182.00 873.00,141.00 873.00,141.00
             873.00,141.00 884.00,141.00 884.00,141.00
             884.00,141.00 884.00,237.00 884.00,237.00
             884.00,237.00 873.00,237.00 873.00,237.00
             873.00,237.00 873.00,191.00 873.00,191.00
             873.00,191.00 860.00,191.00 860.00,191.00
             860.00,191.00 860.00,237.00 860.00,237.00
             860.00,237.00 849.00,237.00 849.00,237.00
             849.00,237.00 849.00,141.00 849.00,141.00 Z
           M 960.00,141.00
           C 968.06,141.00 983.88,139.48 989.79,145.23
             996.69,151.94 995.66,170.21 993.71,179.00
             993.71,179.00 991.34,187.00 991.34,187.00
             991.22,189.81 993.19,191.56 993.95,198.00
             993.95,198.00 997.00,237.00 997.00,237.00
             997.00,237.00 986.00,237.00 986.00,237.00
             986.00,237.00 984.28,206.00 984.28,206.00
             983.75,201.93 983.69,196.50 980.57,193.43
             977.90,190.80 974.46,191.03 971.00,191.00
             971.00,191.00 971.00,237.00 971.00,237.00
             971.00,237.00 960.00,237.00 960.00,237.00
             960.00,237.00 960.00,141.00 960.00,141.00 Z
           M 1011.00,141.00
           C 1011.00,141.00 1046.00,141.00 1046.00,141.00
             1046.00,141.00 1046.00,151.00 1046.00,151.00
             1046.00,151.00 1034.00,151.00 1034.00,151.00
             1034.00,151.00 1034.00,237.00 1034.00,237.00
             1034.00,237.00 1023.00,237.00 1023.00,237.00
             1023.00,237.00 1023.00,171.00 1023.00,171.00
             1023.00,155.19 1024.82,151.19 1015.00,151.00
             1015.00,151.00 1011.00,151.00 1011.00,151.00
             1011.00,151.00 1011.00,141.00 1011.00,141.00 Z
           M 596.00,200.00
           C 596.00,200.00 596.00,165.00 596.00,165.00
             595.95,160.71 595.46,147.24 588.13,149.66
             584.02,151.01 583.72,158.34 583.14,162.00
             583.14,162.00 583.14,200.00 583.14,200.00
             583.14,200.00 596.00,200.00 596.00,200.00 Z
           M 735.00,200.00
           C 735.00,200.00 735.00,165.00 735.00,165.00
             734.95,160.71 734.46,147.24 727.13,149.66
             723.02,151.01 722.72,158.34 722.14,162.00
             722.14,162.00 722.14,200.00 722.14,200.00
             722.14,200.00 735.00,200.00 735.00,200.00 Z
           M 928.00,200.00
           C 928.00,200.00 928.00,165.00 928.00,165.00
             927.99,160.83 928.19,149.63 922.00,149.63
             915.89,149.63 916.01,158.91 916.00,163.00
             916.00,163.00 916.00,200.00 916.00,200.00
             916.00,200.00 928.00,200.00 928.00,200.00 Z
           M 1085.00,200.00
           C 1085.00,200.00 1085.00,164.00 1085.00,164.00
             1084.99,159.64 1085.08,148.63 1078.10,149.58
             1072.05,150.39 1073.02,161.68 1073.00,166.00
             1073.00,166.00 1072.09,180.00 1072.09,180.00
             1072.09,180.00 1073.00,200.00 1073.00,200.00
             1073.00,200.00 1085.00,200.00 1085.00,200.00 Z
           M 971.00,182.00
           C 974.09,182.00 979.15,182.50 981.57,180.40
             983.72,178.53 983.88,175.62 984.27,173.00
             985.06,167.69 986.02,155.44 981.57,151.60
             979.14,149.50 974.10,150.00 971.00,150.00
             971.00,150.00 971.00,182.00 971.00,182.00 Z
           M 505.60,284.02
           C 511.12,281.67 520.73,282.63 523.26,289.02
             524.28,291.58 524.04,298.94 524.00,302.00
             523.88,310.49 520.56,313.60 512.00,313.96
             510.23,314.03 507.03,314.11 505.60,312.98
             503.62,311.41 504.00,307.30 504.00,305.00
             503.99,299.81 502.79,287.93 505.60,284.02 Z
           M 537.00,283.13
           C 537.00,283.13 542.00,283.13 542.00,283.13
             543.59,283.02 545.44,283.03 546.98,283.13
             553.82,285.01 554.01,293.27 552.58,299.00
             552.58,299.00 550.15,305.00 550.15,305.00
             549.56,309.12 552.57,309.63 550.15,314.00
             546.80,308.40 546.82,305.56 540.00,305.00
             539.99,308.98 540.45,310.68 538.00,314.00
             538.00,314.00 537.00,283.13 537.00,283.13 Z
           M 573.00,283.00
           C 573.00,283.00 575.00,283.00 575.00,283.00
             577.71,288.58 583.12,306.78 584.00,313.00
             580.61,310.87 580.65,309.83 580.00,306.00
             580.00,306.00 569.00,306.00 569.00,306.00
             568.35,309.83 568.39,310.87 565.00,313.00
             565.00,313.00 573.00,283.00 573.00,283.00 Z
           M 596.00,283.00
           C 600.06,287.71 602.86,301.46 605.00,308.00
             605.00,308.00 610.60,293.00 610.60,293.00
             610.60,293.00 612.00,283.00 612.00,283.00
             612.00,283.00 620.00,307.00 620.00,307.00
             620.88,300.79 624.03,287.61 628.00,283.00
             628.86,289.01 622.66,307.93 620.00,314.00
             615.44,309.66 614.90,302.80 613.00,297.00
             610.05,302.69 608.86,309.63 604.00,314.00
             601.66,306.97 595.14,289.57 596.00,283.00 Z
           M 660.00,283.00
           C 664.08,286.60 664.90,289.12 667.00,294.00
             669.48,289.65 670.59,285.57 675.00,283.00
             673.65,290.20 670.53,292.72 669.39,298.00
             668.16,303.68 670.61,309.10 667.00,314.00
             667.00,314.00 665.37,298.00 665.37,298.00
             665.37,298.00 660.00,283.00 660.00,283.00 Z
           M 692.04,283.74
           C 694.08,283.24 694.83,283.01 697.00,283.03
             708.17,283.16 706.04,294.16 706.00,302.00
             705.97,306.84 706.13,310.77 700.96,312.99
             698.92,313.87 696.15,314.13 694.00,313.57
             685.33,311.28 686.91,300.88 687.00,294.00
             687.04,291.69 687.01,289.18 688.17,287.11
             689.36,285.01 690.14,284.84 692.04,283.74 Z
           M 719.95,283.00
           C 719.95,283.00 722.00,283.00 722.00,283.00
             722.00,287.03 721.57,303.31 722.60,305.98
             724.81,311.73 731.97,312.43 734.98,306.94
             738.29,300.89 733.33,289.34 738.05,283.00
             739.28,287.52 739.79,303.75 738.05,307.98
             737.25,310.14 736.02,311.60 733.95,312.69
             728.90,315.33 722.07,313.49 719.95,307.98
             718.21,303.75 718.72,287.52 719.95,283.00 Z
           M 753.00,314.00
           C 751.30,308.01 751.99,298.47 752.00,292.00
             752.00,290.29 751.87,286.79 752.60,285.31
             754.62,281.19 764.67,282.85 766.83,286.28
             768.44,288.84 768.29,297.10 767.44,300.00
             767.44,300.00 765.60,305.00 765.60,305.00
             765.32,306.91 766.59,310.78 767.00,313.00
             760.66,309.31 763.72,305.71 755.00,305.00
             754.99,308.98 755.45,310.68 753.00,314.00 Z
           M 801.00,283.00
           C 805.38,283.00 813.28,282.35 816.86,284.85
             822.40,288.74 822.57,306.91 817.58,311.30
             814.85,313.71 804.56,315.61 802.02,312.40
             800.77,310.81 801.00,306.99 801.00,305.00
             801.00,305.00 801.00,283.00 801.00,283.00 Z
           M 834.00,283.00
           C 834.00,283.00 848.00,283.00 848.00,283.00
             848.00,283.00 848.00,286.00 848.00,286.00
             848.00,286.00 836.00,286.00 836.00,286.00
             836.01,295.60 835.93,296.96 846.00,297.00
             846.00,297.00 846.00,299.00 846.00,299.00
             835.25,299.04 836.00,301.02 836.00,311.00
             836.00,311.00 848.00,311.00 848.00,311.00
             845.07,315.37 838.76,314.00 834.00,314.00
             834.00,314.00 834.00,283.00 834.00,283.00 Z
           M 861.00,307.00
           C 862.89,308.20 865.77,310.36 868.00,310.54
             871.58,310.84 874.46,307.52 872.92,304.04
             870.43,298.41 859.45,297.56 859.45,290.00
             859.45,283.04 871.89,279.02 875.00,289.00
             871.89,287.78 866.32,284.33 863.74,288.31
             862.95,289.54 863.07,290.65 863.74,291.90
             866.35,296.72 880.31,298.83 876.26,308.96
             873.45,315.98 861.09,315.61 861.00,307.00 Z
           M 887.00,283.00
           C 887.00,283.00 905.00,283.00 905.00,283.00
             905.00,283.00 905.00,286.00 905.00,286.00
             905.00,286.00 897.00,286.00 897.00,286.00
             897.00,286.00 896.00,314.00 896.00,314.00
             896.00,314.00 895.00,286.00 895.00,286.00
             895.00,286.00 887.00,286.00 887.00,286.00
             887.00,286.00 887.00,283.00 887.00,283.00 Z
           M 917.00,283.00
           C 917.00,283.00 919.00,283.00 919.00,283.00
             919.00,283.00 919.00,314.00 919.00,314.00
             919.00,314.00 917.00,314.00 917.00,314.00
             917.00,314.00 917.00,283.00 917.00,283.00 Z
           M 934.00,283.00
           C 934.00,283.00 947.00,305.00 947.00,305.00
             947.00,305.00 947.00,283.00 947.00,283.00
             950.72,285.49 949.99,287.85 950.00,292.00
             950.01,298.47 950.70,308.01 949.00,314.00
             943.58,309.22 939.76,298.60 936.00,292.00
             936.00,297.87 937.36,309.43 934.00,314.00
             932.38,308.29 932.38,288.71 934.00,283.00 Z
           M 962.00,283.00
           C 962.00,283.00 964.00,283.00 964.00,283.00
             964.00,283.00 969.00,294.00 969.00,294.00
             969.00,294.00 971.00,294.00 971.00,294.00
             972.34,289.30 973.63,285.54 978.00,283.00
             978.00,283.00 971.63,299.00 971.63,299.00
             971.63,299.00 970.00,314.00 970.00,314.00
             970.00,314.00 968.37,299.00 968.37,299.00
             968.37,299.00 962.00,283.00 962.00,283.00 Z
           M 696.00,285.53
           C 693.69,286.06 692.46,286.15 690.93,288.28
             689.03,290.93 684.99,312.80 697.98,310.76
             704.19,309.79 703.98,303.93 704.00,299.00
             704.03,292.11 704.62,286.30 696.00,285.53 Z
           M 507.00,311.00
           C 510.39,311.00 515.98,311.49 518.69,309.26
             522.16,306.40 522.12,290.49 518.69,287.60
             516.13,285.45 510.28,286.00 507.00,286.00
             507.00,286.00 507.00,311.00 507.00,311.00 Z
           M 540.00,302.00
           C 542.28,301.99 545.77,302.21 547.72,300.98
             551.43,298.64 552.19,289.79 548.52,287.17
             546.52,285.75 542.41,286.01 540.00,286.00
             540.00,286.00 540.00,302.00 540.00,302.00 Z
           M 756.00,286.00
           C 756.00,286.00 755.00,302.00 755.00,302.00
             755.00,302.00 762.77,300.81 762.77,300.81
             767.86,298.22 765.83,289.95 764.00,286.00
             764.00,286.00 756.00,286.00 756.00,286.00 Z
           M 804.00,311.00
           C 807.35,311.00 812.93,311.51 815.57,309.26
             819.10,306.26 819.10,290.74 815.57,287.74
             812.93,285.49 807.35,286.00 804.00,286.00
             804.00,286.00 804.00,311.00 804.00,311.00 Z
           M 575.00,290.00
           C 572.23,293.88 571.42,297.31 571.00,302.00
             571.00,302.00 578.00,302.00 578.00,302.00
             578.00,302.00 575.00,290.00 575.00,290.00 Z
           M 571.00,302.00
           C 571.00,302.00 570.00,302.00 570.00,302.00
             570.00,302.00 571.00,303.00 571.00,303.00
             571.00,303.00 571.00,302.00 571.00,302.00 Z
           M 579.00,302.00
           C 579.00,302.00 578.00,302.00 578.00,302.00
             578.00,302.00 579.00,303.00 579.00,303.00
             579.00,303.00 579.00,302.00 579.00,302.00 Z" />
</svg>
